<svg id="Camada_1" data-name="Camada 1" xmlns="http://www.w3.org/2000/svg" viewBox="0 0 744.19 218.45"><defs><style>.cls-1{isolation:isolate;}.cls-2{fill:#eeaf88;}.cls-3{fill:none;stroke:#eeaf88;stroke-miterlimit:10;stroke-width:1.5px;}</style></defs><g class="cls-1"><path class="cls-2" d="M133.6,533.2c0-29.2,23-52,53.4-52a59,59,0,0,1,40.3,15.5l-1.9,1.7A56,56,0,0,0,187,483.7c-29.1,0-50.9,21.6-50.9,49.5,0,28.2,21.8,49.8,50.9,49.8,14.8,0,27.1-4.5,39-14.7l1.9,1.6c-12.6,10.9-25.4,15.7-40.8,15.7C156.4,585.4,133.6,562.6,133.6,533.2Z" transform="translate(-133.6 -367.15)"/><path class="cls-2" d="M251.5,482.3h77v2.3H254.1v42.5h56.5v2.5H254.1v52.1h74.4v2.5h-77Z" transform="translate(-133.6 -367.15)"/><path class="cls-2" d="M355.4,482.3h2.5v99.5H427v2.5H355.4Z" transform="translate(-133.6 -367.15)"/><path class="cls-2" d="M449.3,482.3h77v2.3H451.9v42.5h56.5v2.5H451.9v52.1h74.4v2.5h-77Z" transform="translate(-133.6 -367.15)"/><path class="cls-2" d="M585.4,585.1c-17.2.1-34.3-4.4-46.4-12.2l1.5-2.1c12.3,7.7,29.3,12.1,45,11.9,21-.3,36.3-8.8,36.1-23.8-.1-13.3-9.6-18.3-30.4-23.3L576.1,532c-19.9-4.8-31.9-11.3-32-25.5-.2-15.8,15.2-24.5,37.8-24.8a71.33,71.33,0,0,1,38.6,10.8l-1.5,2.1a66.1,66.1,0,0,0-37-10.5c-21.1.5-35.5,8.2-35.3,22.4.2,12.2,10.3,18.3,30.3,23l15.3,3.6c21.3,5.1,31.7,11.4,31.8,25.6.2,16.7-16.1,26.2-38.7,26.4Z" transform="translate(-133.6 -367.15)"/><path class="cls-2" d="M677.8,484.8H635.7v-2.5h86.7v2.5H680.5v99.5h-2.7Z" transform="translate(-133.6 -367.15)"/><path class="cls-2" d="M743.1,482.3h2.5v102h-2.5Z" transform="translate(-133.6 -367.15)"/><path class="cls-2" d="M819,478.9l54.9,105.6H871l-14.8-28.8H781.3L766,584.6h-3Zm36,74.5-36-69-36.4,69Z" transform="translate(-133.6 -367.15)"/></g><g id="layer1"><path id="path4140" class="cls-3" d="M818.92,367.22l-4.7,50.8-19.4-16.1,16.1,19.4-50.8,4.7,50.8,4.7-16.1,19.4,19.4-16.1,4.7,50.8,4.7-50.8,19.4,16.1-16.1-19.4,50.8-4.7-50.8-4.7,16.1-19.4L823.62,418l-4.7-50.8Z" transform="translate(-133.6 -367.15)"/></g></svg>