<svg id="Camada_1" data-name="Camada 1" xmlns="http://www.w3.org/2000/svg" viewBox="0 0 226.9 242.69"><defs><style>.cls-1,.cls-2,.cls-3,.cls-4{fill:none;stroke:#000;}.cls-1{stroke-miterlimit:10;stroke-width:1.5px;stroke-dasharray:4.99 4.99;}.cls-2,.cls-3{stroke-miterlimit:10;stroke-width:1.5px;}.cls-3{stroke-dasharray:4.92 4.92;}.cls-4{stroke-miterlimit:1;stroke-width:3px;}</style></defs><circle class="cls-1" cx="113.45" cy="129.24" r="112.7"/><g id="layer1"><path id="path4140" class="cls-2" d="M302.88,335l-3.8,41.5-15.8-13.1,13.1,15.8-41.5,3.8,41.5,3.8-13.1,15.8,15.8-13.1,3.8,41.5,3.8-41.5,15.8,13.1-13.1-15.8,41.5-3.8-41.5-3.8,13.1-15.8-15.8,13.1-3.8-41.5Z" transform="translate(-173.89 -249.15)"/></g><ellipse class="cls-3" cx="111.17" cy="16.85" rx="59" ry="16.1"/><path class="cls-4" d="M278.22,291.29c-2.73.18-6.25.52-8.31.81a88.55,88.55,0,0,0-42.52,18.43,90.48,90.48,0,0,0-15.5,15.91,88.41,88.41,0,0,0-13.77,79A89.39,89.39,0,0,0,213,433.84a105.55,105.55,0,0,0,11.66,12.26,88.18,88.18,0,0,0,118.7-2.88c2.47-2.32,8.05-7.93,7.72-7.74-.11,0-2.26,1.54-4.77,3.3s-5.57,3.8-6.82,4.55a72.86,72.86,0,0,1-31.31,10.22,94.21,94.21,0,0,1-12,.07,74,74,0,0,1-39.57-15.37A80.93,80.93,0,0,1,245.94,428a73,73,0,0,1-17.05-40.69,86.8,86.8,0,0,1,0-13.1,73.44,73.44,0,0,1,16.9-40.67,98.62,98.62,0,0,1,8.4-8.46,73.36,73.36,0,0,1,88.27-5.16,77.64,77.64,0,0,1,10.45,8.42c4,3.6,4.91,4.43,4.67,4.11-1.94-2.56-6.92-8.89-8-10.13a87.88,87.88,0,0,0-22.13-18.71,89.19,89.19,0,0,0-37.38-12C288,291.34,280.1,291.18,278.22,291.29Z" transform="translate(-173.89 -249.15)"/></svg>