<svg id="Camada_1" data-name="Camada 1" xmlns="http://www.w3.org/2000/svg" viewBox="0 0 573.61 653.4"><defs><style>.cls-1{isolation:isolate;}.cls-2{fill:#eeaf88;}.cls-3,.cls-4,.cls-5,.cls-6{fill:none;stroke:#eeaf88;}.cls-3,.cls-5{stroke-miterlimit:10;stroke-width:1.5px;}.cls-4{stroke-miterlimit:10;stroke-width:1.5px;stroke-dasharray:4.99 4.99;}.cls-5{stroke-dasharray:4.92 4.92;}.cls-6{stroke-miterlimit:1;stroke-width:3px;}</style></defs><g class="cls-1"><path class="cls-2" d="M255.8,782.8c0-19.8,15.6-35.3,36.2-35.3A40.14,40.14,0,0,1,319.4,758l-1.3,1.2a38.06,38.06,0,0,0-26.1-10c-19.8,0-34.5,14.6-34.5,33.6s14.8,33.8,34.5,33.8a38,38,0,0,0,26.4-10l1.3,1.1c-8.5,7.4-17.3,10.6-27.7,10.6C271.2,818.3,255.8,802.8,255.8,782.8Z" transform="translate(-208.54 -164.9)"/><path class="cls-2" d="M335.8,748.3H388v1.6H337.5v28.9h38.3v1.7H337.5v35.4H388v1.7H335.8Z" transform="translate(-208.54 -164.9)"/><path class="cls-2" d="M406.2,748.3h1.7v67.5h46.9v1.7H406.2Z" transform="translate(-208.54 -164.9)"/><path class="cls-2" d="M469.9,748.3h52.2v1.6H471.6v28.9h38.3v1.7H471.6v35.4h50.5v1.7H469.9V748.3Z" transform="translate(-208.54 -164.9)"/><path class="cls-2" d="M562.3,818c-11.7.1-23.3-3-31.5-8.3l1-1.4c8.3,5.2,19.8,8.2,30.5,8,14.2-.2,24.6-5.9,24.5-16.1-.1-9-6.5-12.4-20.6-15.8L556,781.9c-13.5-3.3-21.6-7.7-21.7-17.3-.1-10.7,10.3-16.6,25.7-16.9a48.61,48.61,0,0,1,26.2,7.3l-1,1.4a45.11,45.11,0,0,0-25.1-7.1c-14.3.3-24.1,5.6-24,15.2.1,8.2,7,12.4,20.6,15.6l10.4,2.5c14.4,3.4,21.5,7.7,21.6,17.4,0,11.4-11.1,17.9-26.4,18Z" transform="translate(-208.54 -164.9)"/><path class="cls-2" d="M624.9,750H596.4v-1.7h58.8V750H626.8v67.5H625l-.1-67.5Z" transform="translate(-208.54 -164.9)"/><path class="cls-2" d="M669.2,748.3h1.7v69.2h-1.7Z" transform="translate(-208.54 -164.9)"/><path class="cls-2" d="M720.7,746l37.2,71.7h-2l-10-19.5H695.1l-10.4,19.5h-2.1Zm24.4,50.5-24.4-46.8L696,796.5Z" transform="translate(-208.54 -164.9)"/></g><ellipse class="cls-3" cx="285.86" cy="376.9" rx="146" ry="147.5"/><circle class="cls-4" cx="495.89" cy="543.29" r="112.7" transform="translate(-447.47 344.87) rotate(-45)"/><g id="layer1"><path id="path4140" class="cls-3" d="M511.42,499.92l-3.8,41.5-15.8-13.1,13.1,15.8-41.5,3.8,41.5,3.8-13.1,15.8,15.8-13.1,3.8,41.5,3.8-41.5,15.8,13.1-13.1-15.8,41.5-3.8-41.5-3.8,13.1-15.8-15.8,13.1-3.8-41.5Z" transform="translate(-208.54 -164.9)"/></g><ellipse class="cls-5" cx="285.06" cy="266" rx="59" ry="16.1"/><path class="cls-3" d="M648.8,556.1c-.2-4.1,3.6-7.6,7.6-7.6h.6c0-1.5.1-3,.1-4.5A161.92,161.92,0,0,0,495.2,382.1c-89.4,0-162,72.5-162,161.9,0,2.1,0,4.1.1,6.2.3,0,.5-.1.8-.1h2.3a8.4,8.4,0,0,1,5.4,2.2,7.67,7.67,0,0,1,2.2,5.3,7.17,7.17,0,0,1-.6,2.9,4.87,4.87,0,0,1-1.6,2.4,7.73,7.73,0,0,1-5.4,2.2h-1.9C345,644.6,413,705.9,495.2,705.9A161.81,161.81,0,0,0,655.9,563.6,7.62,7.62,0,0,1,648.8,556.1Z" transform="translate(-208.54 -164.9)"/><path class="cls-6" d="M486.76,456.19c-2.73.18-6.25.52-8.31.81a88.59,88.59,0,0,0-42.52,18.43,90.39,90.39,0,0,0-15.5,15.91,88.41,88.41,0,0,0-13.77,79,89.31,89.31,0,0,0,14.88,28.4A105.52,105.52,0,0,0,433.2,611a88.18,88.18,0,0,0,118.7-2.88c2.47-2.32,8.05-7.93,7.72-7.74-.11.05-2.26,1.54-4.77,3.3s-5.57,3.8-6.82,4.55a72.78,72.78,0,0,1-31.31,10.22,94.93,94.93,0,0,1-12,.07,74,74,0,0,1-39.57-15.37,80.73,80.73,0,0,1-10.67-10.27,73,73,0,0,1-17.05-40.69,86.8,86.8,0,0,1,0-13.1,73.39,73.39,0,0,1,16.9-40.67,98.48,98.48,0,0,1,8.4-8.46A73.35,73.35,0,0,1,551,484.8a77.55,77.55,0,0,1,10.45,8.42c4,3.6,4.91,4.43,4.67,4.11-1.94-2.56-6.92-8.89-8-10.13a87.82,87.82,0,0,0-22.13-18.71,89.22,89.22,0,0,0-37.38-12C496.54,456.24,488.64,456.08,486.76,456.19Z" transform="translate(-208.54 -164.9)"/><line class="cls-3" x1="447.46" y1="382.6" x2="533.06" y2="371.8"/><line class="cls-3" x1="124.86" y1="383.6" x2="46.76" y2="375.3"/><line class="cls-3" x1="448.16" y1="362.9" x2="487.16" y2="355.7"/><line class="cls-3" x1="125.26" y1="363.6" x2="86.56" y2="354.9"/><line class="cls-3" x1="444.36" y1="343.7" x2="528.36" y2="323.8"/><line class="cls-3" x1="45.86" y1="320.4" x2="127.86" y2="347.2"/><line class="cls-3" x1="439.86" y1="325.8" x2="558.26" y2="287.6"/><line class="cls-3" x1="14.16" y1="287.4" x2="132.36" y2="326.1"/><line class="cls-3" x1="433.16" y1="309.4" x2="573.36" y2="258.8"/><line class="cls-3" x1="0.26" y1="258.6" x2="140.16" y2="310.1"/><line class="cls-3" x1="97.46" y1="268.6" x2="147.66" y2="297.6"/><line class="cls-3" x1="426.16" y1="296.5" x2="477.86" y2="270.1"/><line class="cls-3" x1="58.06" y1="208" x2="157.96" y2="282.1"/><line class="cls-3" x1="414.86" y1="281.6" x2="515.46" y2="208.5"/><line class="cls-3" x1="171.66" y1="264.7" x2="49.76" y2="155.9"/><line class="cls-3" x1="401.56" y1="265.1" x2="521.76" y2="154.4"/><line class="cls-3" x1="100.06" y1="162.5" x2="188.06" y2="250.5"/><line class="cls-3" x1="476.46" y1="162" x2="385.66" y2="249.8"/><line class="cls-3" x1="201.86" y1="241" x2="102.76" y2="106"/><line class="cls-3" x1="358.36" y1="234.7" x2="465.96" y2="106.5"/><line class="cls-3" x1="190.36" y1="181.8" x2="219.36" y2="232"/><line class="cls-3" x1="380.96" y1="182.7" x2="346.36" y2="228.6"/><line class="cls-3" x1="189.66" y1="109.2" x2="232.26" y2="226"/><line class="cls-3" x1="379.66" y1="109.4" x2="335.76" y2="225.8"/><path class="cls-3" d="M442.1,241.1c-1-6.7-1.9-13.3-2.9-20" transform="translate(-208.54 -164.9)"/><path class="cls-3" d="M463.3,386.8c-3.7-41.8-14.3-82.6-18-124.3" transform="translate(-208.54 -164.9)"/><path class="cls-3" d="M542.4,242.3c1-7.5,2-15.1,3-22.6" transform="translate(-208.54 -164.9)"/><path class="cls-3" d="M523.6,385.7c4.1-24,7.1-48.2,10.1-72.4,1.5-16.6,3-33.3,5.9-49.7" transform="translate(-208.54 -164.9)"/><path class="cls-3" d="M497,180V164.9" transform="translate(-208.54 -164.9)"/><path class="cls-3" d="M497.1,222c0-6.6-.1-13.2-.1-19.8" transform="translate(-208.54 -164.9)"/><path class="cls-3" d="M497,381.9c.4-45.9.4-91.3.2-136.9" transform="translate(-208.54 -164.9)"/></svg>