<svg id="Camada_1" data-name="Camada 1" xmlns="http://www.w3.org/2000/svg" viewBox="0 0 226.9 242.69"><defs><style>.cls-1,.cls-2,.cls-3,.cls-4{fill:none;stroke:#000;}.cls-1,.cls-2,.cls-3{stroke-miterlimit:10;stroke-width:1.5px;}.cls-1{stroke-dasharray:4.99 4.99;}.cls-3{stroke-dasharray:4.92 4.92;}.cls-4{stroke-miterlimit:1;stroke-width:3px;}</style></defs><circle class="cls-1" cx="113.45" cy="129.24" r="112.7"/><g id="layer1"><path id="path4140" class="cls-2" d="M129,85.85l-3.8,41.5-15.8-13.1,13.1,15.8L81,133.85l41.5,3.8-13.1,15.8,15.8-13.1,3.8,41.5,3.8-41.5,15.8,13.1-13.1-15.8,41.5-3.8-41.5-3.8,13.1-15.8-15.8,13.1Z"/></g><ellipse class="cls-3" cx="111.17" cy="16.85" rx="59" ry="16.1"/><path class="cls-4" d="M104.33,42.14c-2.73.18-6.25.52-8.31.81A88.55,88.55,0,0,0,53.5,61.38,90.48,90.48,0,0,0,38,77.29a88.41,88.41,0,0,0-13.77,79,89.39,89.39,0,0,0,14.88,28.4A105.55,105.55,0,0,0,50.77,197a88.18,88.18,0,0,0,118.7-2.88c2.47-2.32,8.05-7.93,7.72-7.74-.11,0-2.26,1.54-4.77,3.3s-5.57,3.8-6.82,4.55a72.86,72.86,0,0,1-31.31,10.22,94.21,94.21,0,0,1-12,.07A74,74,0,0,1,82.72,189.1a80.76,80.76,0,0,1-10.67-10.25,73,73,0,0,1-17-40.69,86.8,86.8,0,0,1,0-13.1A73.44,73.44,0,0,1,71.9,84.39a98.62,98.62,0,0,1,8.4-8.46,73.36,73.36,0,0,1,88.27-5.16A77.64,77.64,0,0,1,179,79.19c4,3.6,4.91,4.43,4.67,4.11-1.94-2.56-6.92-8.89-8-10.13a87.88,87.88,0,0,0-22.13-18.71,89.05,89.05,0,0,0-37.38-12C114.11,42.19,106.21,42,104.33,42.14Z"/></svg>